<svg width="25" height="25" viewBox="0 0 25 25" fill="none" xmlns="http://www.w3.org/2000/svg">
<path d="M16.733 12.4996L24.123 5.11011C25.2923 3.9408 25.2923 2.04524 24.123 0.876531C22.9549 -0.292177 21.0582 -0.292177 19.89 0.876531L12.5 8.26717L5.10996 0.876531C3.94185 -0.292177 2.04509 -0.292177 0.87698 0.876531C-0.292327 2.04584 -0.292327 3.9414 0.87698 5.11011L8.26643 12.4996L0.87698 19.889C-0.292327 21.0583 -0.292327 22.9539 0.87698 24.1226C1.46074 24.7075 2.2277 24.9991 2.99347 24.9991C3.75864 24.9991 4.5262 24.7075 5.10996 24.1226L12.5 16.7331L19.89 24.1232C20.4744 24.7081 21.2408 24.9997 22.0065 24.9997C22.7723 24.9997 23.5393 24.7081 24.123 24.1232C25.2923 22.9539 25.2923 21.0583 24.123 19.8896L16.733 12.4996Z" fill="white"/>
</svg>
