<svg width="82" height="100" viewBox="0 0 82 100" fill="none" xmlns="http://www.w3.org/2000/svg">
<path d="M45.1255 33.86V49.5251L60.505 56.7917V33.86C66.9836 30.928 71.4873 24.4108 71.4873 16.8397C71.4873 9.54774 67.3082 3.23348 61.2135 0.160625C60.2164 -0.342109 59.0383 0.399492 59.0396 1.51688L59.0383 15.1384L52.8125 19.1296L46.591 15.137V1.51688C46.5923 0.399492 45.4142 -0.342109 44.4171 0.160625C38.3224 3.23348 34.1406 9.54774 34.1433 16.8397C34.1433 24.4108 38.6498 30.928 45.1255 33.86Z" fill="#E5EAEE"/>
<path d="M60.5053 56.7917V33.86C66.9838 30.928 71.4876 24.4108 71.4876 16.8397C71.4876 9.54774 67.3085 3.23348 61.2137 0.160625C60.2167 -0.342109 59.0385 0.399492 59.0399 1.51688L59.0385 15.1384L52.8127 19.1296V52.93L60.5053 56.7917Z" fill="#CFCFDE"/>
<path d="M64.9741 82.4224L57.5776 99.9966C47.8142 99.9991 51.3364 99.9985 42.644 99.9985C39.3542 99.9985 36.7313 99.1937 34.0718 97.8696C29.5288 95.6118 24.5229 92.4829 19.4487 92.4849L3.75928 92.4868C2.23193 92.4868 0.991699 91.2485 0.991699 89.7212C0.989356 74.0104 0.989747 78.645 0.989747 68.9634L0.987793 58.5552C0.987793 57.0278 2.22607 55.7896 3.75342 55.7896L22.9565 55.7876H22.9819L34.1362 55.7856L38.6226 53.8774C59.2499 56.5608 48.3341 55.1419 59.6304 56.6118L63.98 60.0923L64.7124 76.563L64.9741 82.4224Z" fill="#F9A58D"/>
<path d="M57.5779 99.9963H57.5798L57.5759 100L57.5779 99.9963Z" fill="#FFCCBD"/>
<path d="M75.9865 64.8438H53.2878V53.125H75.9865C78.7621 53.125 81.0123 55.3752 81.0123 58.1508V59.818C81.0123 62.5936 78.7621 64.8438 75.9865 64.8438Z" fill="#FFBDA9"/>
<path d="M52.5686 76.5625H72.0811H74.0342C76.8096 76.5625 79.0596 74.3125 79.0596 71.5371V69.8691C79.0596 67.0938 76.8096 64.8438 74.0342 64.8438H54.5391L52.5686 76.5625Z" fill="#FFBDA9"/>
<path d="M72.081 88.2813H57.5747C54.3386 88.2813 51.7153 85.658 51.7153 82.4219C51.7153 79.1857 54.3386 76.5625 57.5747 76.5625H72.081C74.8565 76.5625 77.1067 78.8127 77.1067 81.5883V83.2555C77.1067 86.0311 74.8565 88.2813 72.081 88.2813Z" fill="#FFBDA9"/>
<path d="M70.1278 100H57.5747C54.3386 100 51.7153 97.3768 51.7153 94.1406C51.7153 90.9045 54.3386 88.2812 57.5747 88.2812H70.1278C72.9034 88.2812 75.1536 90.5314 75.1536 93.307V94.9742C75.1536 97.7498 72.9034 100 70.1278 100Z" fill="#FFBDA9"/>
<path d="M55.6226 51.3381V72.1467C55.6226 75.3831 52.9976 78.0061 49.7632 78.0061C46.529 78.0061 43.9038 75.3811 43.9038 72.1467V61.887C43.9038 61.887 42.4351 68.9631 32.1831 68.9631H0.989747L0.987793 58.5549C0.987793 57.0276 2.22607 55.7893 3.75342 55.7893L22.9819 55.7874L31.4136 48.2756C33.353 46.9983 35.6265 46.3186 37.9507 46.3186H50.6011C53.3614 46.3186 55.6226 48.5547 55.6226 51.3381Z" fill="#FFCCBD"/>
<path d="M57.5779 99.9963H57.5798L57.5759 100L57.5779 99.9963Z" fill="#FFA68C"/>
</svg>
