<svg width="100" height="100" viewBox="0 0 100 100" fill="none" xmlns="http://www.w3.org/2000/svg">
<g clip-path="url(#clip0)">
<path d="M98.6251 48.7052L93.9773 54.2617L97.5402 60.7276C98.3009 62.1055 98.4573 63.755 97.9728 65.2519C97.486 66.7495 96.3897 67.9901 94.9645 68.6607L88.3079 71.7841L88.9312 79.1091C89.1776 82.0098 87.1757 84.6405 84.2757 85.2325L84.1445 85.26L83.7752 85.2989L75.9986 85.4553L73.5862 92.4018C73.0727 93.8873 71.9504 95.1087 70.5123 95.7473C69.0734 96.389 67.4178 96.4042 65.9682 95.7946L59.1918 92.9374L54.1648 98.3024C53.0646 99.4766 51.5654 100.082 50.0449 100.096C50.0289 100.098 50.0113 100.098 49.9961 100.098C48.7784 100.098 47.5509 99.7169 46.501 98.941L46.3881 98.8594L46.1104 98.6091L40.7965 92.9374L34.0201 95.7946C32.5682 96.4042 30.9127 96.389 29.4738 95.7473C28.0371 95.1087 26.9156 93.8888 26.3999 92.3996L23.9897 85.4553L16.6388 85.3088C15.0633 85.2775 13.5565 84.5878 12.5052 83.419C11.4516 82.2479 10.9244 80.677 11.0571 79.1091L11.6805 71.7841L5.02382 68.6607C2.38862 67.4232 1.1107 64.3722 2.04912 61.5661L2.09184 61.4387L2.24214 61.0969L6.00877 54.2617L1.36247 48.7052C-0.523518 46.5026 -0.444936 43.2136 1.54863 41.0361L1.64399 40.9309L1.98808 40.6318L7.92375 36.0129L5.786 28.9558C4.92998 26.1291 6.30556 23.2055 9.05748 22.0016L9.18871 21.9451L9.54042 21.8291L17.1157 20.0606L18.0304 12.7646C18.2257 11.2029 19.068 9.77621 20.3429 8.85152C21.6147 7.9276 23.2314 7.56597 24.7771 7.86123L31.9991 9.24672L35.8008 2.95323C36.6156 1.60664 37.966 0.646865 39.5064 0.318801C41.0445 -0.00773729 42.6688 0.320327 43.9589 1.21983L49.9938 5.42134L50.0449 5.38625L56.2598 1.05504C56.4261 0.939834 56.6062 0.836837 56.7939 0.750625C59.4924 -0.498308 62.6708 0.447738 64.1852 2.95323L67.9885 9.24672L75.209 7.86123C76.7547 7.56368 78.3729 7.92531 79.647 8.85152C80.918 9.77392 81.7618 11.2014 81.9572 12.7646L82.8719 20.0583L90.0313 21.7315C91.5656 22.0893 92.8947 23.0765 93.682 24.4384C94.4701 25.8033 94.6578 27.4489 94.2023 28.9558L92.0623 36.0152L97.7538 40.4441C98.9982 41.3955 99.8038 42.8321 99.9679 44.39C100.132 45.948 99.6413 47.5173 98.6251 48.7052Z" fill="#FFE477"/>
<path d="M98.6256 48.7046L93.9778 54.2611L97.5407 60.7271C98.3014 62.1049 98.4578 63.7544 97.9733 65.2513C97.4866 66.749 96.3902 67.9895 94.965 68.6601L88.3084 71.7836L88.9317 79.1086C89.1782 82.0093 87.1762 84.6399 84.2763 85.2319L84.145 85.2594L83.7758 85.2983L75.9991 85.4547L73.5867 92.4013C73.0732 93.8867 71.951 95.1082 70.5128 95.7468C69.0739 96.3884 67.4183 96.4037 65.9687 95.7941L59.1923 92.9369L54.1653 98.3019C53.0651 99.4761 51.566 100.082 50.0454 100.096V5.38564L56.2603 1.05443C56.4266 0.939224 56.6067 0.836227 56.7944 0.750015C59.4929 -0.498919 62.6713 0.447128 64.1857 2.95262L67.989 9.24612L75.2095 7.86062C76.7552 7.56307 78.3734 7.92471 79.6475 8.85092C80.9186 9.77331 81.7624 11.2008 81.9577 12.764L82.8724 20.0578L90.0319 21.7309C91.5662 22.0887 92.8952 23.0759 93.6825 24.4378C94.4707 25.8027 94.6583 27.4484 94.2029 28.9552L92.0628 36.0147L97.7544 40.4435C98.9987 41.3949 99.8044 42.8315 99.9684 44.3895C100.132 45.9474 99.6419 47.5167 98.6256 48.7046Z" fill="#FFCD00"/>
<path d="M74.8591 50.1462C74.8591 63.8471 63.7347 74.9998 50.0453 75.0486H49.9575C36.2269 75.0486 25.0552 63.8761 25.0552 50.1462C25.0552 36.4164 36.2269 25.2446 49.9575 25.2446H50.0453C63.7347 25.2935 74.8591 36.4454 74.8591 50.1462Z" fill="white"/>
<path d="M74.8593 50.1462C74.8593 63.8471 63.7348 74.9998 50.0454 75.0486V25.2446C63.7348 25.2935 74.8593 36.4454 74.8593 50.1462Z" fill="#E1EBF0"/>
<path d="M61.2605 46.5598L50.046 57.7766L47.6222 60.2005C47.05 60.7727 46.2992 61.058 45.5485 61.058C44.7985 61.058 44.0478 60.7727 43.4748 60.2005L38.2647 54.988C37.1188 53.8421 37.1188 51.9874 38.2647 50.8422C39.4076 49.6971 41.2646 49.6971 42.4098 50.8422L45.5485 53.981L57.1154 42.4148C58.2606 41.2696 60.1176 41.2696 61.2605 42.4148C62.4064 43.56 62.4064 45.417 61.2605 46.5598Z" fill="#B4D2D7"/>
<path d="M61.2598 46.5598L50.0454 57.7766V49.4842L57.1148 42.4148C58.2599 41.2696 60.1169 41.2696 61.2598 42.4148C62.4057 43.56 62.4057 45.417 61.2598 46.5598Z" fill="#6FA5AA"/>
</g>
<defs>
<clipPath id="clip0">
<rect width="100" height="100" fill="white"/>
</clipPath>
</defs>
</svg>
