<svg width="100" height="100" viewBox="0 0 100 100" fill="none" xmlns="http://www.w3.org/2000/svg">
<path d="M85.4534 73.0234C88.125 68.913 90.0668 64.3445 91.177 59.5759H77.8268C73.8057 71.2689 62.6364 79.4179 49.9983 79.4179H49.9319C37.0452 79.39 25.9963 71.1181 22.0227 59.5759H8.82349C9.93364 64.3445 11.8754 68.9132 14.5471 73.0234L10.5022 77.0683C9.35903 78.2074 9.35513 80.0636 10.5002 81.2128L18.7874 89.5C19.9352 90.6437 21.7915 90.6425 22.9319 89.498L26.9768 85.4531C31.3127 88.2714 36.1584 90.2793 41.2112 91.3535V97.0703C41.2112 98.6875 42.5237 100 44.1409 100H55.8596C57.4768 100 58.7893 98.6875 58.7893 97.0703V91.3535C63.842 90.2793 68.6877 88.2714 73.0237 85.4531L77.0686 89.498C78.2221 90.6515 80.0739 90.6353 81.2131 89.5L89.5002 81.2128C90.6448 80.0642 90.642 78.208 89.4983 77.0683L85.4534 73.0234Z" fill="#766D78"/>
<path d="M85.4534 73.0234C88.125 68.913 90.0668 64.3445 91.177 59.5759H77.8268C73.8057 71.2689 62.6364 79.4179 49.9983 79.4179H49.9319V100H55.8596C57.4768 100 58.7893 98.6875 58.7893 97.0703V91.3535C63.842 90.2793 68.6877 88.2714 73.0237 85.4531L77.0686 89.498C78.218 90.6474 80.0696 90.6394 81.2131 89.5L89.5002 81.2128C90.6454 80.0636 90.6415 78.2074 89.4983 77.0683L85.4534 73.0234Z" fill="#554E56"/>
<path d="M94.2253 49.0488V55.4063C94.2253 57.0234 92.9128 58.3359 91.2956 58.3359H57.7468C56.8308 58.3359 55.9656 57.9062 55.4128 57.1758C54.116 55.4648 52.1433 54.4844 50.0007 54.4844C47.8582 54.4844 45.8855 55.4648 44.5886 57.1758C44.0359 57.9062 43.1707 58.3359 42.2546 58.3359H8.70581C7.08862 58.3359 5.77612 57.0234 5.77612 55.4063V49.0488C5.77612 38.332 9.65894 27.9941 16.7078 19.9395C19.2703 17.0098 22.1863 14.4551 25.3679 12.3203C26.1746 11.7773 28.614 13.7344 28.614 13.7344C28.614 13.7344 29.8347 9.67188 30.8621 9.17773C34.4343 7.46094 38.239 6.22266 42.1804 5.51953H57.821C61.7624 6.22266 65.5671 7.46094 69.1394 9.17969C70.0496 9.61523 71.1355 14.3965 71.1355 14.3965C71.1355 14.3965 73.7175 11.7051 74.6335 12.3203C77.8152 14.4551 80.7312 17.0098 83.2937 19.9395C90.3425 27.9941 94.2253 38.332 94.2253 49.0488Z" fill="#FFF161"/>
<path d="M94.2246 49.0488V55.4063C94.2246 57.0234 92.9121 58.3359 91.2949 58.3359H57.7461C56.8301 58.3359 55.9648 57.9062 55.4121 57.1758C54.1152 55.4648 52.1426 54.4844 50 54.4844V5.51953H57.8203C61.7617 6.22266 65.5664 7.46094 69.1387 9.17969C70.0488 9.61523 71.1348 14.3965 71.1348 14.3965C71.1348 14.3965 73.7168 11.7051 74.6328 12.3203C77.8145 14.4551 80.7305 17.0098 83.293 19.9395C90.3418 27.9941 94.2246 38.332 94.2246 49.0488Z" fill="#FFCC00"/>
<path d="M58.7891 7.7793V25.3418C58.7891 29.7832 55.1738 33.3984 50.7324 33.3984H49.2676C44.8262 33.3984 41.2109 29.7832 41.2109 25.3418V7.7793C41.2109 3.49023 44.7012 0 48.9902 0H51.0098C55.2988 0 58.7891 3.49023 58.7891 7.7793Z" fill="#FFCC00"/>
<path d="M30.4651 31.4453C29.0178 31.4453 27.76 30.375 27.5647 28.9004L25.3674 12.3203C27.1233 11.1406 28.9592 10.0918 30.8616 9.17773L33.3733 28.1309C33.6051 29.8777 32.2479 31.4453 30.4651 31.4453Z" fill="#FFCC00"/>
<path d="M74.6329 12.3203L72.4357 28.9004C72.2222 30.5129 70.7402 31.6336 69.1466 31.4199C67.5431 31.207 66.4142 29.7344 66.6271 28.1308L69.1388 9.17969C71.0412 10.0918 72.8771 11.1406 74.6329 12.3203Z" fill="#FF8756"/>
<path d="M41.9164 47.594H8.78125C3.93945 47.594 0 51.5335 0 56.3752V60.2893C0 61.9065 1.3125 63.219 2.92969 63.219H41.9164V47.594Z" fill="#FFCC00"/>
<path d="M91.2192 47.594H58.0591V63.219H97.0708C98.688 63.219 100 61.9065 100 60.2893V56.3752C100 51.5335 96.061 47.594 91.2192 47.594Z" fill="#FF8756"/>
<path d="M50.7324 33.3984H50V0H51.0098C55.2988 0 58.7891 3.49023 58.7891 7.7793V25.3418C58.7891 29.7832 55.1738 33.3984 50.7324 33.3984Z" fill="#FF8756"/>
<path d="M60.3591 55.4067C60.3591 57.6841 59.6345 59.8442 58.2634 61.6567C56.2829 64.27 53.2712 65.7661 49.9997 65.7661C46.7283 65.7661 43.7165 64.27 41.738 61.6587C40.365 59.8442 39.6404 57.6841 39.6404 55.4067C39.6404 53.1294 40.365 50.9692 41.7361 49.1567C43.7165 46.5435 46.7283 45.0474 49.9997 45.0474C53.2712 45.0474 56.2829 46.5435 58.2614 49.1548C59.6345 50.9692 60.3591 53.1294 60.3591 55.4067Z" fill="#F4F4F7"/>
<path d="M60.3594 55.4067C60.3594 57.6841 59.6348 59.8442 58.2637 61.6567C56.2832 64.27 53.2715 65.7661 50 65.7661V45.0474C53.2715 45.0474 56.2832 46.5435 58.2617 49.1548C59.6348 50.9692 60.3594 53.1294 60.3594 55.4067Z" fill="#E5EAEE"/>
<path d="M50.0005 42.7659C42.922 42.7659 37.3599 48.5018 37.3599 55.4065C37.3599 62.291 42.903 68.0471 50.0005 68.0471C57.0792 68.0471 62.6411 62.3111 62.6411 55.4065C62.6411 48.5217 57.0978 42.7659 50.0005 42.7659ZM50.0005 62.1877C46.2007 62.1877 43.2192 59.1121 43.2192 55.4065C43.2192 51.6944 46.2069 48.6252 50.0005 48.6252C53.8003 48.6252 56.7817 51.7006 56.7817 55.4065C56.7817 59.1186 53.794 62.1877 50.0005 62.1877Z" fill="#766D78"/>
<path d="M62.6406 55.4065C62.6406 62.2965 57.0926 68.0471 50 68.0471V62.1877C53.7924 62.1877 56.7812 59.1197 56.7812 55.4065C56.7812 51.7032 53.802 48.6252 50 48.6252V42.7659C57.0926 42.7659 62.6406 48.5168 62.6406 55.4065Z" fill="#554E56"/>
</svg>
