<svg width="132" height="23" viewBox="0 0 132 23" fill="none" xmlns="http://www.w3.org/2000/svg">
<path d="M89.6924 16.6914H101.606V14.1286H93.7539C94.837 9.92286 101.471 9.00286 101.471 4.33714C101.471 1.84 99.7108 0 95.9878 0C93.6862 0 91.6555 0.657143 90.3016 1.31429L91.1139 3.68C92.3324 3.08857 93.7539 2.56286 95.5139 2.56286C96.8678 2.56286 98.1539 3.15429 98.1539 4.66571C98.1539 8.08286 90.3693 8.34571 89.6924 16.6914ZM101.945 12.6171H109.594V16.6914H112.64V12.6171H115.212V10.12H112.64V0H110.406L101.945 10.6457V12.6171ZM105.397 10.2514L109.729 4.6C109.729 5.06 109.594 6.50571 109.594 7.82V10.1857H107.563C106.954 10.1857 105.803 10.2514 105.397 10.2514Z" fill="#005893"/>
<path d="M3.18154 14.1286V8.93714H4.46769C5.61846 8.93714 6.56615 9.06857 7.24308 9.46286C7.92 9.85714 8.32615 10.5143 8.32615 11.5657C8.32615 13.34 7.24308 14.1286 4.67077 14.1286H3.18154ZM0.0676923 16.6257H4.60308C9.68 16.6257 11.5077 14.4571 11.5077 11.4343C11.5077 9.39714 10.6277 8.01714 9.07077 7.22857C7.85231 6.57143 6.29538 6.37429 4.4 6.37429H3.18154V2.43143H10.0185L10.8308 0H0V16.6257H0.0676923ZM13.6062 16.6257H16.5846L20.4431 11.2371C21.1877 10.2514 21.7292 9.26571 22.0677 8.74H22.1354C22.0677 9.46286 22 10.3829 22 11.3029V16.56H25.0462V4.73143H22.0677L18.2092 10.12C17.5323 11.1057 16.9231 12.0914 16.5846 12.6171H16.5169C16.5846 11.8943 16.6523 10.9743 16.6523 10.0543V4.79714H13.6062V16.6257ZM30.2585 16.6257H33.3723V7.22857H37.0277L37.84 4.73143H26.5354V7.22857H30.2585V16.6257ZM38.9231 22.6057H41.9692V16.6257C42.5785 16.8229 43.1877 16.8886 43.8646 16.8886C47.7231 16.8886 50.2277 14.3257 50.2277 10.6457C50.2277 6.83429 47.9262 4.40286 43.5262 4.40286C41.8338 4.40286 40.2092 4.73143 38.8554 5.12571V22.6057H38.9231ZM41.9692 14.0629V7.09714C42.4431 6.96571 42.8492 6.9 43.3908 6.9C45.6246 6.9 47.0462 8.08286 47.0462 10.6457C47.0462 12.9457 45.8954 14.3914 43.5938 14.3914C42.9846 14.3914 42.5108 14.26 41.9692 14.0629ZM52.0554 16.6257H55.0338L58.8923 11.2371C59.6369 10.2514 60.1785 9.26571 60.5169 8.74H60.5846C60.5169 9.46286 60.4492 10.3829 60.4492 11.3029V16.56H63.4954V4.73143H60.5169L56.6585 10.12C55.9815 11.1057 55.3723 12.0914 55.0338 12.6171H54.9661C55.0338 11.8943 55.1015 10.9743 55.1015 10.0543V4.79714H52.0554V16.6257ZM65.9323 16.6257H69.0462V11.6971H70.8738C71.2123 11.6971 71.5508 12.0257 71.9569 12.8143L73.5138 16.6257H76.8308L74.5969 12.0914C74.1908 11.3029 73.7846 10.8429 73.1754 10.6457V10.58C74.1908 9.98857 74.3261 8.28 74.9354 7.42571C75.1385 7.16286 75.4092 7.03143 75.8154 7.03143C76.0185 7.03143 76.2892 7.03143 76.4923 7.16286V4.6C76.1538 4.46857 75.5446 4.40286 75.2061 4.40286C74.1231 4.40286 73.4462 4.79714 72.9723 5.45429C71.9569 6.9 71.9569 9.39714 70.4677 9.39714H69.0462V4.73143H65.9323V16.6257ZM83.7354 16.8886C85.4277 16.8886 86.9846 16.3629 87.9323 15.7057L87.0523 13.6686C86.1723 14.1286 85.36 14.4571 84.2092 14.4571C82.1108 14.4571 80.7569 13.1429 80.7569 10.7114C80.7569 8.54286 82.1108 6.83429 84.4123 6.83429C85.6308 6.83429 86.5108 7.16286 87.3908 7.75429V5.19143C86.7138 4.79714 85.6308 4.40286 84.0738 4.40286C80.4185 4.40286 77.5754 7.03143 77.5754 10.7771C77.5754 14.1943 79.7415 16.8886 83.7354 16.8886Z" fill="#0BBBEF"/>
<path d="M125.298 12.6176C128.615 12.6176 131.323 9.98898 131.323 6.76898C131.323 3.54898 128.615 0.92041 125.298 0.92041C121.981 0.92041 119.274 3.54898 119.274 6.76898C119.341 9.98898 121.981 12.6176 125.298 12.6176Z" stroke="#005893" stroke-width="1.7688"/>
<path d="M129.089 6.76883H125.772V3.54883H124.892V7.62311H129.089V6.76883Z" fill="#005893"/>
</svg>
