<svg width="25" height="26" viewBox="0 0 25 26" fill="none" xmlns="http://www.w3.org/2000/svg">
<path d="M12.2767 23.1152C18.2437 23.1152 23.0808 18.2688 23.0808 12.2905C23.0808 6.31211 18.2437 1.4657 12.2767 1.4657C6.30981 1.4657 1.47266 6.31211 1.47266 12.2905C1.47266 18.2688 6.30981 23.1152 12.2767 23.1152Z" fill="url(#paint0_linear)"/>
<path d="M12.2767 22.7541C18.0445 22.7541 22.7203 18.0694 22.7203 12.2904C22.7203 6.51152 18.0445 1.82678 12.2767 1.82678C6.50879 1.82678 1.83301 6.51152 1.83301 12.2904C1.83301 18.0694 6.50879 22.7541 12.2767 22.7541Z" fill="url(#paint1_linear)"/>
<path opacity="0.67" d="M3.66095 8.06024C3.64378 8.06024 3.62661 8.06024 3.60945 8.05164C3.54938 8.02585 3.53223 7.95707 3.55797 7.89688C5.23136 4.57809 8.56954 2.52319 12.2767 2.52319C12.8689 2.52319 13.461 2.57478 14.0359 2.67795C14.096 2.68655 14.1389 2.74674 14.1303 2.81552C14.1218 2.8757 14.0617 2.9187 13.993 2.9101C13.4267 2.80692 12.8517 2.75534 12.2767 2.75534C8.65536 2.75534 5.3944 4.76724 3.76392 8.00865C3.73818 8.03445 3.70386 8.06024 3.66095 8.06024Z" fill="white"/>
<path opacity="0.67" d="M18.75 18.7859C22.2018 15.3275 22.2018 9.72035 18.75 6.26196C15.2982 2.80358 9.70178 2.80358 6.25 6.26196C2.79822 9.72035 2.79822 15.3275 6.25 18.7859C9.70178 22.2443 15.2982 22.2443 18.75 18.7859Z" fill="white"/>
<path d="M11.633 19.1086V18.1457C10.6289 18.1027 9.64207 17.8705 8.9298 17.561C8.68094 17.4492 8.55223 17.1655 8.62088 16.899L8.86116 16.0048C8.94698 15.6781 9.30739 15.5061 9.62491 15.6351C10.32 15.9274 11.1867 16.1595 12.1135 16.1595C13.0833 16.1595 13.7955 15.8328 13.7955 15.1622C13.7955 14.5517 13.2377 14.1906 11.899 13.8295C9.98533 13.305 8.61229 12.471 8.61229 10.7773C8.61229 9.25543 9.72788 8.08612 11.6587 7.77659V6.81362C11.6587 6.5041 11.9076 6.25476 12.2165 6.25476H12.7829C13.0918 6.25476 13.3407 6.5041 13.3407 6.81362V7.68202C14.2675 7.71641 14.9454 7.87977 15.4775 8.06892C15.7521 8.1635 15.898 8.46442 15.8293 8.73956L15.6062 9.57355C15.5204 9.89168 15.1772 10.0722 14.8682 9.95186C14.3705 9.76271 13.6754 9.57355 12.7658 9.57355C11.6158 9.57355 11.2897 10.0464 11.2897 10.4763C11.2897 11.0008 11.9762 11.3619 13.4694 11.8176C15.5976 12.4539 16.4815 13.3394 16.4815 14.93C16.4815 16.3917 15.4003 17.6986 13.3064 18.0339V19.1086C13.3064 19.4182 13.0575 19.6675 12.7486 19.6675H12.1822C11.8819 19.6675 11.633 19.4182 11.633 19.1086Z" fill="url(#paint2_linear)"/>
<defs>
<linearGradient id="paint0_linear" x1="-2.51242" y1="29.488" x2="12.0129" y2="12.6605" gradientUnits="userSpaceOnUse">
<stop stop-color="#E1473D"/>
<stop offset="1" stop-color="#E9605A"/>
</linearGradient>
<linearGradient id="paint1_linear" x1="20.1707" y1="0.339672" x2="-22.8009" y2="65.1335" gradientUnits="userSpaceOnUse">
<stop stop-color="#FE7062"/>
<stop offset="1" stop-color="#FF928E"/>
</linearGradient>
<linearGradient id="paint2_linear" x1="18.8922" y1="2.19843" x2="-3.99304" y2="40.5456" gradientUnits="userSpaceOnUse">
<stop stop-color="#FE7062"/>
<stop offset="1" stop-color="#FF928E"/>
</linearGradient>
</defs>
</svg>
