<svg width="132" height="23" viewBox="0 0 132 23" fill="none" xmlns="http://www.w3.org/2000/svg">
<path d="M89.6924 16.6914H101.606V14.1286H93.7539C94.837 9.92286 101.471 9.00286 101.471 4.33714C101.471 1.84 99.7108 0 95.9878 0C93.6862 0 91.6555 0.657143 90.3016 1.31429L91.1139 3.68C92.3324 3.08857 93.7539 2.56286 95.5139 2.56286C96.8678 2.56286 98.1539 3.15429 98.1539 4.66571C98.1539 8.08286 90.3693 8.34571 89.6924 16.6914ZM101.945 12.6171H109.594V16.6914H112.64V12.6171H115.212V10.12H112.64V0H110.406L101.945 10.6457V12.6171ZM105.397 10.2514L109.729 4.6C109.729 5.06 109.594 6.50571 109.594 7.82V10.1857H107.563C106.954 10.1857 105.803 10.2514 105.397 10.2514Z" fill="#005893"/>
<path d="M3.18154 14.1943V9.00288H4.46769C5.61846 9.00288 6.56615 9.13431 7.24308 9.52859C7.92 9.92288 8.32615 10.58 8.32615 11.6314C8.32615 13.4057 7.24308 14.1943 4.67077 14.1943H3.18154ZM0.0676923 16.6914H4.60308C9.68 16.6914 11.5077 14.5229 11.5077 11.5C11.5077 9.46288 10.6277 8.08288 9.07077 7.29431C7.85231 6.63716 6.29538 6.44002 4.4 6.44002H3.18154V2.49716H10.0185L10.8308 0.0657349H0V16.6914H0.0676923ZM13.6062 16.6914H16.5846L20.4431 11.3029C21.1877 10.3172 21.7292 9.33145 22.0677 8.80573H22.1354C22.0677 9.52859 22 10.4486 22 11.3686V16.6257H25.0462V4.79716H22.0677L18.2092 10.1857C17.5323 11.1714 16.9231 12.1572 16.5846 12.6829H16.5169C16.5846 11.96 16.6523 11.04 16.6523 10.12V4.86288H13.6062V16.6914ZM30.2585 16.6914H33.3723V7.29431H37.0277L37.84 4.79716H26.5354V7.29431H30.2585V16.6914ZM38.9231 22.6714H41.9692V16.6914C42.5785 16.8886 43.1877 16.9543 43.8646 16.9543C47.7231 16.9543 50.2277 14.3914 50.2277 10.7114C50.2277 6.90002 47.9262 4.46859 43.5262 4.46859C41.8338 4.46859 40.2092 4.79716 38.8554 5.19145V22.6714H38.9231ZM41.9692 14.1286V7.16288C42.4431 7.03145 42.8492 6.96573 43.3908 6.96573C45.6246 6.96573 47.0462 8.14859 47.0462 10.7114C47.0462 13.0114 45.8954 14.4572 43.5938 14.4572C42.9846 14.4572 42.5108 14.3257 41.9692 14.1286ZM52.0554 16.6914H55.0338L58.8923 11.3029C59.6369 10.3172 60.1785 9.33145 60.5169 8.80573H60.5846C60.5169 9.52859 60.4492 10.4486 60.4492 11.3686V16.6257H63.4954V4.79716H60.5169L56.6585 10.1857C55.9815 11.1714 55.3723 12.1572 55.0338 12.6829H54.9661C55.0338 11.96 55.1015 11.04 55.1015 10.12V4.86288H52.0554V16.6914ZM65.9323 16.6914H69.0462V11.7629H70.8738C71.2123 11.7629 71.5508 12.0914 71.9569 12.88L73.5138 16.6914H76.8308L74.5969 12.1572C74.1908 11.3686 73.7846 10.9086 73.1754 10.7114V10.6457C74.1908 10.0543 74.3261 8.34573 74.9354 7.49145C75.1385 7.22859 75.4092 7.09716 75.8154 7.09716C76.0185 7.09716 76.2892 7.09716 76.4923 7.22859V4.66573C76.1538 4.53431 75.5446 4.46859 75.2061 4.46859C74.1231 4.46859 73.4462 4.86288 72.9723 5.52002C71.9569 6.96573 71.9569 9.46288 70.4677 9.46288H69.0462V4.79716H65.9323V16.6914ZM83.7354 16.9543C85.4277 16.9543 86.9846 16.4286 87.9323 15.7714L87.0523 13.7343C86.1723 14.1943 85.36 14.5229 84.2092 14.5229C82.1108 14.5229 80.7569 13.2086 80.7569 10.7772C80.7569 8.60859 82.1108 6.90002 84.4123 6.90002C85.6308 6.90002 86.5108 7.22859 87.3908 7.82002V5.25716C86.7138 4.86288 85.6308 4.46859 84.0738 4.46859C80.4185 4.46859 77.5754 7.09716 77.5754 10.8429C77.5754 14.26 79.7415 16.9543 83.7354 16.9543Z" fill="#0BBBEF"/>
<path d="M125.298 12.6172C128.615 12.6172 131.323 9.98861 131.323 6.76861C131.323 3.54861 128.615 0.920044 125.298 0.920044C121.981 0.920044 119.273 3.54861 119.273 6.76861C119.341 9.98861 121.981 12.6172 125.298 12.6172Z" stroke="#005893" stroke-width="1.7688"/>
<path d="M129.089 6.76858H125.772V3.54858H124.892V7.62287H129.089V6.76858Z" fill="#005893"/>
</svg>
