<?xml version="1.0" encoding="UTF-8"?>
<svg xmlns="http://www.w3.org/2000/svg" xmlns:xlink="http://www.w3.org/1999/xlink" width="40pt" height="40pt" viewBox="0 0 40 40" version="1.1">
<g id="surface16418116">
<path style=" stroke:none;fill-rule:nonzero;fill:rgb(0.784314%,5.882353%,7.843138%);fill-opacity:1;" d="M 19.957031 2.148438 C 19.6875 2.160156 19.425781 2.253906 19.210938 2.425781 L 7.128906 11.941406 C 5.597656 13.148438 4.699219 14.996094 4.699219 16.949219 L 4.699219 31.476562 C 4.699219 32.632812 5.664062 33.601562 6.824219 33.601562 L 10.648438 33.601562 L 10.648438 31.050781 L 7.25 31.050781 L 7.25 16.949219 C 7.25 15.777344 7.785156 14.671875 8.707031 13.945312 L 20 5.046875 L 31.292969 13.945312 C 32.214844 14.671875 32.75 15.777344 32.75 16.949219 L 32.75 31.050781 L 29.351562 31.050781 L 29.351562 33.601562 L 33.175781 33.601562 C 34.335938 33.601562 35.300781 32.632812 35.300781 31.476562 L 35.300781 16.949219 C 35.300781 14.996094 34.402344 13.148438 32.871094 11.941406 L 20.789062 2.425781 C 20.554688 2.238281 20.257812 2.140625 19.957031 2.148438 Z M 16.175781 18.300781 C 14.546875 18.300781 13.199219 19.648438 13.199219 21.273438 L 13.199219 36.574219 C 13.199219 37.0625 13.476562 37.503906 13.910156 37.71875 C 14.347656 37.933594 14.867188 37.882812 15.25 37.585938 L 20 33.933594 L 24.746094 37.585938 C 25.132812 37.882812 25.652344 37.933594 26.089844 37.71875 C 26.523438 37.503906 26.800781 37.0625 26.800781 36.574219 L 26.800781 21.273438 C 26.800781 19.648438 25.453125 18.300781 23.824219 18.300781 Z M 16.175781 20.851562 L 23.824219 20.851562 C 24.074219 20.851562 24.25 21.023438 24.25 21.273438 L 24.25 33.984375 L 20.777344 31.3125 C 20.320312 30.960938 19.679688 30.960938 19.222656 31.3125 L 15.75 33.984375 L 15.75 21.273438 C 15.75 21.023438 15.925781 20.851562 16.175781 20.851562 Z M 16.175781 20.851562 "/>
</g>
</svg>
