<?xml version="1.0" encoding="UTF-8"?>
<svg xmlns="http://www.w3.org/2000/svg" xmlns:xlink="http://www.w3.org/1999/xlink" width="40pt" height="40pt" viewBox="0 0 40 40" version="1.1">
<g id="surface16414082">
<path style=" stroke:none;fill-rule:nonzero;fill:rgb(0.784314%,5.882353%,7.843138%);fill-opacity:1;" d="M 5.402344 3.050781 C 4.121094 3.050781 3.050781 4.121094 3.050781 5.402344 L 3.050781 8.3125 C 3.050781 10.476562 4.042969 12.523438 5.742188 13.859375 C 5.746094 13.863281 5.746094 13.863281 5.75 13.863281 L 15.292969 21.3125 L 15.292969 35.539062 C 15.292969 36.066406 15.585938 36.550781 16.058594 36.792969 C 16.527344 37.035156 17.09375 36.992188 17.523438 36.6875 L 24.117188 31.980469 C 24.488281 31.714844 24.707031 31.285156 24.707031 30.828125 L 24.707031 21.3125 L 34.25 13.863281 C 34.253906 13.863281 34.253906 13.863281 34.257812 13.859375 C 35.957031 12.523438 36.949219 10.476562 36.949219 8.3125 L 36.949219 5.402344 C 36.949219 4.121094 35.878906 3.050781 34.597656 3.050781 Z M 5.875 5.875 L 34.125 5.875 L 34.125 8.3125 C 34.125 9.613281 33.53125 10.835938 32.511719 11.640625 L 22.425781 19.507812 C 22.085938 19.773438 21.882812 20.1875 21.882812 20.621094 L 21.882812 30.101562 L 18.117188 32.792969 L 18.117188 20.621094 C 18.117188 20.1875 17.914062 19.773438 17.574219 19.507812 L 7.488281 11.640625 C 6.46875 10.835938 5.875 9.613281 5.875 8.3125 Z M 5.875 5.875 "/>
</g>
</svg>
