<?xml version="1.0" encoding="UTF-8"?>
<svg xmlns="http://www.w3.org/2000/svg" xmlns:xlink="http://www.w3.org/1999/xlink" width="40pt" height="40pt" viewBox="0 0 40 40" version="1.1">
<g id="surface16418701">
<path style=" stroke:none;fill-rule:nonzero;fill:rgb(0.784314%,5.882353%,7.843138%);fill-opacity:1;" d="M 33.179688 1.167969 C 30.589844 1.167969 28.464844 3.292969 28.464844 5.878906 L 28.464844 34.125 C 28.464844 36.710938 30.589844 38.839844 33.179688 38.839844 C 35.765625 38.839844 37.890625 36.710938 37.890625 34.125 L 37.890625 5.878906 C 37.890625 3.292969 35.765625 1.167969 33.179688 1.167969 Z M 13.878906 2.109375 C 13.371094 2.101562 12.894531 2.367188 12.640625 2.808594 C 12.382812 3.25 12.382812 3.792969 12.640625 4.234375 C 12.894531 4.671875 13.371094 4.941406 13.878906 4.933594 L 16.875 4.933594 L 1.640625 18.472656 C 1.25 18.804688 1.066406 19.320312 1.167969 19.824219 C 1.265625 20.328125 1.628906 20.738281 2.117188 20.898438 C 2.605469 21.054688 3.140625 20.933594 3.515625 20.585938 L 19.058594 6.769531 L 19.058594 10.113281 C 19.050781 10.621094 19.320312 11.097656 19.757812 11.351562 C 20.199219 11.609375 20.742188 11.609375 21.183594 11.351562 C 21.621094 11.097656 21.890625 10.621094 21.882812 10.113281 L 21.882812 3.519531 C 21.882812 2.742188 21.25 2.109375 20.472656 2.109375 Z M 33.179688 3.992188 C 34.238281 3.992188 35.066406 4.820312 35.066406 5.878906 L 35.066406 34.125 C 35.066406 35.183594 34.238281 36.015625 33.179688 36.015625 C 32.117188 36.015625 31.289062 35.183594 31.289062 34.125 L 31.289062 5.878906 C 31.289062 4.820312 32.117188 3.992188 33.179688 3.992188 Z M 20 15.292969 C 17.414062 15.292969 15.285156 17.417969 15.285156 20.003906 L 15.285156 34.125 C 15.285156 36.710938 17.414062 38.839844 20 38.839844 C 22.585938 38.839844 24.714844 36.710938 24.714844 34.125 L 24.714844 20.003906 C 24.714844 17.417969 22.585938 15.292969 20 15.292969 Z M 20 18.117188 C 21.058594 18.117188 21.890625 18.945312 21.890625 20.003906 L 21.890625 34.125 C 21.890625 35.183594 21.058594 36.015625 20 36.015625 C 18.941406 36.015625 18.109375 35.183594 18.109375 34.125 L 18.109375 20.003906 C 18.109375 18.945312 18.941406 18.117188 20 18.117188 Z M 6.8125 23.761719 C 4.226562 23.761719 2.097656 25.890625 2.097656 28.476562 L 2.097656 34.125 C 2.097656 36.710938 4.226562 38.839844 6.8125 38.839844 C 9.398438 38.839844 11.523438 36.710938 11.523438 34.125 L 11.523438 28.476562 C 11.523438 25.890625 9.398438 23.761719 6.8125 23.761719 Z M 6.8125 26.585938 C 7.871094 26.585938 8.699219 27.414062 8.699219 28.476562 L 8.699219 34.125 C 8.699219 35.183594 7.871094 36.015625 6.8125 36.015625 C 5.75 36.015625 4.925781 35.183594 4.925781 34.125 L 4.925781 28.476562 C 4.925781 27.414062 5.75 26.585938 6.8125 26.585938 Z M 6.8125 26.585938 "/>
</g>
</svg>
