<?xml version="1.0" encoding="UTF-8"?>
<svg xmlns="http://www.w3.org/2000/svg" xmlns:xlink="http://www.w3.org/1999/xlink" width="40pt" height="40pt" viewBox="0 0 40 40" version="1.1">
<g id="surface16416328">
<path style=" stroke:none;fill-rule:nonzero;fill:rgb(0.784314%,5.882353%,7.843138%);fill-opacity:1;" d="M 20 3.332031 C 19.726562 3.332031 19.453125 3.421875 19.226562 3.601562 L 7.382812 12.933594 C 5.867188 14.125 5 15.917969 5 17.839844 L 5 33.75 C 5 34.898438 5.933594 35.832031 7.082031 35.832031 L 20.632812 35.832031 C 20.03125 35.074219 19.542969 34.234375 19.167969 33.332031 L 7.5 33.332031 L 7.5 17.839844 C 7.5 16.683594 8.015625 15.617188 8.933594 14.902344 L 20 6.175781 L 31.066406 14.902344 C 31.984375 15.617188 32.5 16.683594 32.5 17.839844 L 32.5 18.859375 C 33.390625 19.140625 34.226562 19.542969 35 20.042969 L 35 17.839844 C 35 15.917969 34.132812 14.125 32.617188 12.933594 L 20.773438 3.601562 C 20.546875 3.421875 20.273438 3.332031 20 3.332031 Z M 29.167969 20 C 24.105469 20 20 24.105469 20 29.167969 C 20 34.230469 24.105469 38.332031 29.167969 38.332031 C 34.230469 38.332031 38.332031 34.230469 38.332031 29.167969 C 38.332031 24.105469 34.230469 20 29.167969 20 Z M 34.167969 25 C 34.378906 25 34.59375 25.082031 34.757812 25.246094 C 35.082031 25.570312 35.082031 26.097656 34.757812 26.421875 L 28.089844 33.089844 C 27.925781 33.25 27.714844 33.332031 27.5 33.332031 C 27.285156 33.332031 27.074219 33.25 26.910156 33.089844 L 23.578125 29.757812 C 23.25 29.429688 23.25 28.902344 23.578125 28.578125 C 23.902344 28.25 24.429688 28.25 24.757812 28.578125 L 27.5 31.320312 L 33.578125 25.246094 C 33.742188 25.082031 33.953125 25 34.167969 25 Z M 34.167969 25 "/>
</g>
</svg>
