<?xml version="1.0" encoding="UTF-8"?>
<svg xmlns="http://www.w3.org/2000/svg" xmlns:xlink="http://www.w3.org/1999/xlink" width="40pt" height="40pt" viewBox="0 0 40 40" version="1.1">
<g id="surface16415005">
<path style=" stroke:none;fill-rule:nonzero;fill:rgb(0.784314%,5.882353%,7.843138%);fill-opacity:1;" d="M 8.230469 3.050781 C 5.386719 3.050781 3.050781 5.386719 3.050781 8.230469 L 3.050781 28.945312 C 3.050781 31.789062 5.386719 34.125 8.230469 34.125 L 14.328125 34.125 L 19.042969 38.460938 C 19.582031 38.957031 20.410156 38.957031 20.949219 38.464844 L 25.726562 34.125 L 31.769531 34.125 C 34.613281 34.125 36.949219 31.789062 36.949219 28.945312 L 36.949219 8.230469 C 36.949219 5.386719 34.613281 3.050781 31.769531 3.050781 Z M 8.230469 5.875 L 31.769531 5.875 C 33.085938 5.875 34.125 6.914062 34.125 8.230469 L 34.125 28.945312 C 34.125 30.261719 33.085938 31.300781 31.769531 31.300781 L 25.179688 31.300781 C 24.828125 31.300781 24.488281 31.429688 24.226562 31.667969 L 20.003906 35.507812 L 15.835938 31.671875 C 15.574219 31.433594 15.234375 31.300781 14.878906 31.300781 L 8.230469 31.300781 C 6.914062 31.300781 5.875 30.261719 5.875 28.945312 L 5.875 8.230469 C 5.875 6.914062 6.914062 5.875 8.230469 5.875 Z M 11.054688 11.523438 C 10.273438 11.523438 9.640625 12.15625 9.640625 12.9375 C 9.640625 13.71875 10.273438 14.351562 11.054688 14.351562 C 11.835938 14.351562 12.464844 13.71875 12.464844 12.9375 C 12.464844 12.15625 11.835938 11.523438 11.054688 11.523438 Z M 16.703125 11.523438 C 16.195312 11.519531 15.722656 11.785156 15.464844 12.226562 C 15.207031 12.664062 15.207031 13.210938 15.464844 13.648438 C 15.722656 14.089844 16.195312 14.355469 16.703125 14.351562 L 28.945312 14.351562 C 29.457031 14.355469 29.929688 14.089844 30.1875 13.648438 C 30.441406 13.210938 30.441406 12.664062 30.1875 12.226562 C 29.929688 11.785156 29.457031 11.519531 28.945312 11.523438 Z M 11.054688 17.175781 C 10.273438 17.175781 9.640625 17.808594 9.640625 18.585938 C 9.640625 19.367188 10.273438 20 11.054688 20 C 11.835938 20 12.464844 19.367188 12.464844 18.585938 C 12.464844 17.808594 11.835938 17.175781 11.054688 17.175781 Z M 16.703125 17.175781 C 16.195312 17.167969 15.722656 17.433594 15.464844 17.875 C 15.207031 18.316406 15.207031 18.859375 15.464844 19.300781 C 15.722656 19.738281 16.195312 20.007812 16.703125 20 L 28.945312 20 C 29.457031 20.007812 29.929688 19.738281 30.1875 19.300781 C 30.441406 18.859375 30.441406 18.316406 30.1875 17.875 C 29.929688 17.433594 29.457031 17.167969 28.945312 17.175781 Z M 11.054688 22.824219 C 10.273438 22.824219 9.640625 23.457031 9.640625 24.238281 C 9.640625 25.019531 10.273438 25.648438 11.054688 25.648438 C 11.835938 25.648438 12.464844 25.019531 12.464844 24.238281 C 12.464844 23.457031 11.835938 22.824219 11.054688 22.824219 Z M 16.703125 22.824219 C 16.195312 22.816406 15.722656 23.085938 15.464844 23.527344 C 15.207031 23.964844 15.207031 24.507812 15.464844 24.949219 C 15.722656 25.390625 16.195312 25.65625 16.703125 25.648438 L 28.945312 25.648438 C 29.457031 25.65625 29.929688 25.390625 30.1875 24.949219 C 30.441406 24.507812 30.441406 23.964844 30.1875 23.527344 C 29.929688 23.085938 29.457031 22.816406 28.945312 22.824219 Z M 16.703125 22.824219 "/>
</g>
</svg>
