<?xml version="1.0" encoding="UTF-8"?>
<svg xmlns="http://www.w3.org/2000/svg" xmlns:xlink="http://www.w3.org/1999/xlink" width="40pt" height="40pt" viewBox="0 0 40 40" version="1.1">
<g id="surface16417468">
<path style=" stroke:none;fill-rule:nonzero;fill:rgb(0.784314%,5.882353%,7.843138%);fill-opacity:1;" d="M 5.535156 5.066406 C 3.230469 5.066406 1.332031 6.964844 1.332031 9.265625 L 1.332031 30.734375 C 1.332031 33.035156 3.230469 34.933594 5.535156 34.933594 L 34.464844 34.933594 C 36.769531 34.933594 38.667969 33.035156 38.667969 30.734375 L 38.667969 9.265625 C 38.667969 6.964844 36.769531 5.066406 34.464844 5.066406 Z M 5.535156 7.867188 L 34.464844 7.867188 C 35.257812 7.867188 35.867188 8.476562 35.867188 9.265625 L 35.867188 30.734375 C 35.867188 31.523438 35.257812 32.132812 34.464844 32.132812 L 5.535156 32.132812 C 4.742188 32.132812 4.132812 31.523438 4.132812 30.734375 L 4.132812 9.265625 C 4.132812 8.476562 4.742188 7.867188 5.535156 7.867188 Z M 12.535156 13.464844 C 10.988281 13.464844 9.734375 14.71875 9.734375 16.265625 C 9.734375 17.8125 10.988281 19.066406 12.535156 19.066406 C 14.078125 19.066406 15.332031 17.8125 15.332031 16.265625 C 15.332031 14.71875 14.078125 13.464844 12.535156 13.464844 Z M 22.332031 15.332031 C 21.828125 15.328125 21.359375 15.589844 21.105469 16.027344 C 20.851562 16.464844 20.851562 17.003906 21.105469 17.4375 C 21.359375 17.875 21.828125 18.140625 22.332031 18.132812 L 30.734375 18.132812 C 31.238281 18.140625 31.707031 17.875 31.960938 17.4375 C 32.21875 17.003906 32.21875 16.464844 31.960938 16.027344 C 31.707031 15.589844 31.238281 15.328125 30.734375 15.332031 Z M 9.265625 20.933594 C 8.492188 20.933594 7.867188 21.558594 7.867188 22.332031 C 7.867188 23.734375 7.867188 26.535156 12.441406 26.535156 L 12.625 26.535156 C 17.199219 26.535156 17.199219 23.734375 17.199219 22.332031 C 17.199219 21.558594 16.574219 20.933594 15.800781 20.933594 Z M 22.332031 21.867188 C 21.828125 21.859375 21.359375 22.125 21.105469 22.5625 C 20.851562 22.996094 20.851562 23.535156 21.105469 23.972656 C 21.359375 24.410156 21.828125 24.671875 22.332031 24.667969 L 30.734375 24.667969 C 31.238281 24.671875 31.707031 24.410156 31.960938 23.972656 C 32.21875 23.535156 32.21875 22.996094 31.960938 22.5625 C 31.707031 22.125 31.238281 21.859375 30.734375 21.867188 Z M 22.332031 21.867188 "/>
</g>
</svg>
